<svg width="50" height="50" viewBox="0 0 50 50" fill="none" xmlns="http://www.w3.org/2000/svg">
<path d="M25 10.1339C16.8862 10.1339 10.2902 16.7299 10.279 24.8438C10.279 27.6228 11.0603 30.3348 12.5335 32.6674L12.8795 33.2254L11.3951 38.6496L16.9643 37.1875L17.5 37.5112C19.7545 38.8504 22.3437 39.5647 24.9888 39.5647H25C33.1027 39.5647 39.8772 32.9687 39.8772 24.8549C39.8772 20.9263 38.1808 17.2321 35.4018 14.4531C32.6116 11.6629 28.9286 10.1339 25 10.1339ZM33.6496 31.1607C33.2812 32.1987 31.5179 33.1362 30.6696 33.2589C29.2634 33.471 28.1696 33.3594 25.3683 32.154C20.9375 30.2344 18.0357 25.7701 17.8125 25.4799C17.5893 25.1897 16.0045 23.0804 16.0045 20.904C16.0045 18.7277 17.1429 17.6562 17.5558 17.2098C17.9576 16.7634 18.4375 16.6518 18.7388 16.6518C19.029 16.6518 19.3304 16.6518 19.5871 16.6629C19.8549 16.6741 20.2232 16.5625 20.5804 17.4219C20.9487 18.3036 21.8304 20.4799 21.942 20.7031C22.0536 20.9263 22.1317 21.183 21.9754 21.4732C21.1272 23.1696 20.2232 23.1027 20.6808 23.8839C22.3884 26.8192 24.096 27.8348 26.6964 29.1406C27.1429 29.3638 27.3996 29.3304 27.6563 29.029C27.9129 28.7388 28.7612 27.7344 29.0513 27.2991C29.3415 26.8527 29.6429 26.9308 30.0446 27.0759C30.4464 27.221 32.6228 28.2924 33.0692 28.5156C33.5156 28.7388 33.8058 28.8504 33.9174 29.029C34.0179 29.2411 34.0179 30.1339 33.6496 31.1607ZM44.6429 0H5.35714C2.39955 0 0 2.39955 0 5.35714V44.6429C0 47.6004 2.39955 50 5.35714 50H44.6429C47.6004 50 50 47.6004 50 44.6429V5.35714C50 2.39955 47.6004 0 44.6429 0ZM24.9888 42.5446C22.0201 42.5446 19.1071 41.7969 16.529 40.3906L7.14286 42.8571L9.65402 33.683C8.10268 31.0045 7.28795 27.9576 7.28795 24.8326C7.29911 15.0781 15.2344 7.14286 24.9888 7.14286C29.721 7.14286 34.1629 8.98437 37.5112 12.3326C40.8482 15.6808 42.8571 20.1228 42.8571 24.8549C42.8571 34.6094 34.7433 42.5446 24.9888 42.5446Z" fill="#0048FF"/>
</svg>
